<svg width="22" height="20" viewBox="0 0 22 20" fill="none" xmlns="http://www.w3.org/2000/svg">
<mask id="path-1-inside-1_642_165" fill="white">
<path fill-rule="evenodd" clip-rule="evenodd" d="M11 19.2479C10.7029 19.2479 10.4154 19.2096 10.1758 19.1233C6.51496 17.8679 0.697876 13.4117 0.697876 6.82791C0.697876 3.47374 3.40996 0.752075 6.74496 0.752075C8.36454 0.752075 9.87871 1.38458 11 2.51541C12.1212 1.38458 13.6354 0.752075 15.255 0.752075C18.59 0.752075 21.302 3.48332 21.302 6.82791C21.302 13.4212 15.485 17.8679 11.8241 19.1233C11.5845 19.2096 11.297 19.2479 11 19.2479ZM6.74496 2.18958C4.20538 2.18958 2.13538 4.26916 2.13538 6.82791C2.13538 13.3733 8.43163 17.015 10.6454 17.7721C10.8179 17.8296 11.1916 17.8296 11.3641 17.7721C13.5683 17.015 19.8741 13.3829 19.8741 6.82791C19.8741 4.26916 17.8041 2.18958 15.2645 2.18958C13.8079 2.18958 12.4566 2.86999 11.5845 4.04874C11.3162 4.41291 10.7029 4.41291 10.4345 4.04874C9.54329 2.86041 8.20163 2.18958 6.74496 2.18958Z"/>
</mask>
<path d="M10.1758 19.1233L10.5145 18.1824L10.5074 18.1799L10.5002 18.1774L10.1758 19.1233ZM11 2.51541L10.2898 3.2195L11 3.93568L11.7101 3.2195L11 2.51541ZM11.8241 19.1233L11.4997 18.1774L11.4926 18.1799L11.4854 18.1824L11.8241 19.1233ZM10.6454 17.7721L10.3218 18.7183L10.3292 18.7208L10.6454 17.7721ZM11.3641 17.7721L11.6804 18.7208L11.689 18.7178L11.3641 17.7721ZM11.5845 4.04874L10.7806 3.45398L10.7795 3.45554L11.5845 4.04874ZM10.4345 4.04874L11.2396 3.45552L11.2345 3.44874L10.4345 4.04874ZM9.83707 20.0642C10.2173 20.2011 10.6272 20.2479 11 20.2479V18.2479C10.7786 18.2479 10.6134 18.2181 10.5145 18.1824L9.83707 20.0642ZM-0.302124 6.82791C-0.302124 10.4314 1.29261 13.4215 3.32554 15.648C5.34944 17.8647 7.8609 19.3866 9.85141 20.0693L10.5002 18.1774C8.82985 17.6046 6.60236 16.2707 4.80251 14.2995C3.01169 12.3381 1.69788 9.80816 1.69788 6.82791H-0.302124ZM6.74496 -0.247925C2.85356 -0.247925 -0.302124 2.92558 -0.302124 6.82791H1.69788C1.69788 4.0219 3.96636 1.75208 6.74496 1.75208V-0.247925ZM11.7101 1.81132C10.3998 0.489859 8.62948 -0.247925 6.74496 -0.247925V1.75208C8.09961 1.75208 9.35761 2.27929 10.2898 3.2195L11.7101 1.81132ZM15.255 -0.247925C13.3704 -0.247925 11.6001 0.489859 10.2898 1.81132L11.7101 3.2195C12.6423 2.27929 13.9003 1.75208 15.255 1.75208V-0.247925ZM22.302 6.82791C22.302 2.93619 19.1474 -0.247925 15.255 -0.247925V1.75208C18.0325 1.75208 20.302 4.03046 20.302 6.82791H22.302ZM12.1485 20.0693C14.1385 19.3868 16.65 17.8675 18.6742 15.6518C20.7075 13.4261 22.302 10.436 22.302 6.82791H20.302C20.302 9.81318 18.988 12.343 17.1976 14.3029C15.398 16.2727 13.1706 17.6044 11.4997 18.1774L12.1485 20.0693ZM11 20.2479C11.3727 20.2479 11.7826 20.2011 12.1628 20.0642L11.4854 18.1824C11.3865 18.2181 11.2213 18.2479 11 18.2479V20.2479ZM3.13538 6.82791C3.13538 4.81604 4.76305 3.18958 6.74496 3.18958V1.18958C3.6477 1.18958 1.13538 3.72228 1.13538 6.82791H3.13538ZM10.969 16.8259C9.99647 16.4933 8.00026 15.4706 6.262 13.7582C4.53625 12.0582 3.13538 9.75278 3.13538 6.82791H1.13538C1.13538 10.4485 2.88262 13.2366 4.85844 15.183C6.82174 17.1171 9.08053 18.2938 10.3218 18.7183L10.969 16.8259ZM11.0479 16.8234C11.0754 16.8142 11.0928 16.8107 11.0955 16.8102C11.0993 16.8094 11.0971 16.81 11.0881 16.8111C11.0694 16.8132 11.0399 16.8152 11.0048 16.8152C10.9696 16.8152 10.9401 16.8132 10.9214 16.8111C10.9124 16.81 10.9102 16.8094 10.914 16.8102C10.9167 16.8107 10.9341 16.8142 10.9616 16.8234L10.3292 18.7208C10.5674 18.8002 10.8307 18.8152 11.0048 18.8152C11.1788 18.8152 11.4421 18.8002 11.6803 18.7208L11.0479 16.8234ZM18.8741 6.82791C18.8741 9.75731 17.4711 12.0626 15.7444 13.7614C14.0052 15.4724 12.0086 16.4934 11.0393 16.8263L11.689 18.7178C12.9238 18.2937 15.1822 17.1201 17.147 15.1871C19.1242 13.2418 20.8741 10.4535 20.8741 6.82791H18.8741ZM15.2645 3.18958C17.2465 3.18958 18.8741 4.81604 18.8741 6.82791H20.8741C20.8741 3.72228 18.3618 1.18958 15.2645 1.18958V3.18958ZM12.3884 4.6435C13.0724 3.71899 14.1257 3.18958 15.2645 3.18958V1.18958C13.49 1.18958 11.8408 2.02099 10.7806 3.45398L12.3884 4.6435ZM9.62949 4.64194C9.98498 5.12439 10.5311 5.32187 11.0095 5.32187C11.4879 5.32187 12.0341 5.12439 12.3896 4.64194L10.7795 3.45554C10.8666 3.33726 10.972 3.32187 11.0095 3.32187C11.0471 3.32187 11.1524 3.33726 11.2396 3.45554L9.62949 4.64194ZM6.74496 3.18958C7.88347 3.18958 8.9301 3.70949 9.63454 4.64874L11.2345 3.44874C10.1565 2.01133 8.51978 1.18958 6.74496 1.18958V3.18958Z" fill="#727272" mask="url(#path-1-inside-1_642_165)"/>
</svg>
