<svg width="216" height="69" viewBox="0 0 216 69" fill="none" xmlns="http://www.w3.org/2000/svg">
<path d="M7.59533 7.59425L7.59423 7.59535C3.40012 11.7895 3.40012 18.5894 7.59423 22.7836L45.5685 60.7578C49.7626 64.9519 56.5626 64.9519 60.7567 60.7578L60.7578 60.7567C64.9519 56.5626 64.9519 49.7626 60.7578 45.5685L22.7835 7.59425C18.5894 3.40014 11.7894 3.40014 7.59533 7.59425Z" fill="url(#paint0_linear_66_304)"/>
<path d="M22.7841 22.7841C26.9785 18.5897 26.9785 11.7892 22.7841 7.5948C18.5897 3.40039 11.7892 3.40039 7.59477 7.5948C3.40036 11.7892 3.40036 18.5897 7.59477 22.7841C11.7892 26.9785 18.5897 26.9785 22.7841 22.7841Z" fill="#FF6574"/>
<path d="M60.9053 60.9052C65.0997 56.7108 65.0997 49.9103 60.9053 45.7159C56.7109 41.5215 49.9104 41.5215 45.716 45.7159C41.5216 49.9103 41.5216 56.7108 45.716 60.9052C49.9104 65.0996 56.7109 65.0996 60.9053 60.9052Z" fill="url(#paint1_linear_66_304)"/>
<path d="M60.9062 7.5952L60.9051 7.5941C56.711 3.4 49.911 3.4 45.7169 7.5941L7.74261 45.5684C3.54851 49.7625 3.54851 56.5625 7.74262 60.7566L7.74372 60.7577C11.9378 64.9518 18.7378 64.9518 22.9319 60.7577L60.9062 22.7834C65.1003 18.5893 65.1003 11.7893 60.9062 7.5952Z" fill="url(#paint2_linear_66_304)"/>
<path d="M7.59468 60.9051C11.7891 65.0995 18.5896 65.0995 22.784 60.9051C26.9784 56.7106 26.9784 49.9102 22.784 45.7157C18.5896 41.5213 11.7891 41.5213 7.59468 45.7157C3.40027 49.9102 3.40027 56.7106 7.59468 60.9051Z" fill="url(#paint3_linear_66_304)"/>
<path d="M45.7163 22.784C49.9107 26.9784 56.7112 26.9784 60.9056 22.784C65.1 18.5895 65.1 11.7891 60.9056 7.59465C56.7112 3.40024 49.9107 3.40024 45.7163 7.59465C41.5219 11.7891 41.5219 18.5895 45.7163 22.784Z" fill="#FF6674"/>
<path d="M29.2275 28.1172H26.7641V40.4025H29.2275V28.1172Z" fill="white"/>
<path d="M40.5537 28.0215H30.8917V30.4209H40.5537V28.0215Z" fill="white"/>
<path d="M40.5537 33.0439H30.8917V35.4437H40.5537V33.0439Z" fill="white"/>
<path d="M40.5537 38.0674H30.8917V40.4668H40.5537V38.0674Z" fill="white"/>
<mask id="path-11-outside-1_66_304" maskUnits="userSpaceOnUse" x="70.7766" y="13.376" width="145" height="24" fill="black">
<rect fill="white" x="70.7766" y="13.376" width="145" height="24"/>
<path d="M81.5027 31.1921H83.8439L78.9802 23.284L83.866 15.3531H81.5481L77.9122 21.5576L74.0945 15.3531H71.7766L76.6396 23.284L71.7993 31.1921H74.0945L77.7077 25.0111L81.5027 31.1921ZM88.6836 21.0343V18.7391H86.6157V37.1005H88.6836V28.897C89.4562 30.1695 91.0697 31.3967 93.3421 31.3967C96.6827 31.3967 99.2505 28.7833 99.2505 24.9202C99.2505 21.0343 96.6823 18.5346 93.3421 18.5346C91.0697 18.5346 89.4335 19.7162 88.6836 21.0343ZM97.1371 24.9195C97.1371 27.851 95.2056 29.5781 92.9104 29.5781C90.6607 29.5781 88.6836 27.8737 88.6836 24.9423C88.6836 22.0563 90.6603 20.3292 92.9104 20.3292C95.2062 20.3298 97.1371 21.9887 97.1371 24.9195ZM104.045 24.4196C104.045 21.5336 105.545 20.6473 107.522 20.6473H108.067V18.5118C106.09 18.5118 104.749 19.3754 104.045 20.7616V18.7391H101.977V31.1921H104.045V24.4196ZM122.27 24.9429C122.27 21.0115 119.521 18.5346 115.976 18.5346C112.453 18.5346 109.681 21.0115 109.681 24.9429C109.681 28.8963 112.363 31.3967 115.885 31.3967C119.43 31.3967 122.27 28.897 122.27 24.9429ZM111.794 24.9429C111.794 21.8069 113.771 20.3298 115.953 20.3298C118.089 20.3298 120.157 21.8069 120.157 24.9429C120.157 28.1016 118.044 29.5787 115.885 29.5787C113.726 29.5787 111.794 28.1016 111.794 24.9429ZM141.7 31.1921H143.882L138.178 15.444H135.792L130.065 31.1921H132.247L133.519 27.6698H140.427L141.7 31.1921ZM139.837 25.9882H134.11L136.974 17.9892L139.837 25.9882ZM145.609 24.9195C145.609 28.7827 148.177 31.396 151.517 31.396C153.789 31.396 155.403 30.2371 156.153 28.8509V31.1921H158.243V14.376H156.153V20.9661C155.289 19.5341 153.494 18.5346 151.54 18.5346C148.176 18.5346 145.609 21.0343 145.609 24.9195ZM156.153 24.9423C156.153 27.8737 154.198 29.5781 151.926 29.5781C149.654 29.5781 147.722 27.8516 147.722 24.9195C147.722 21.9875 149.653 20.3292 151.926 20.3292C154.198 20.3292 156.153 22.0569 156.153 24.9429V24.9423ZM160.97 24.9195C160.97 28.7827 163.539 31.396 166.879 31.396C169.151 31.396 170.765 30.2371 171.515 28.8509V31.1921H173.606V14.376H171.515V20.9661C170.651 19.5341 168.856 18.5346 166.902 18.5346C163.538 18.5346 160.97 21.0343 160.97 24.9195ZM171.515 24.9423C171.515 27.8737 169.56 29.5781 167.288 29.5781C165.015 29.5781 163.084 27.8516 163.084 24.9195C163.084 21.9875 165.016 20.3292 167.288 20.3292C169.561 20.3292 171.515 22.0569 171.515 24.9429V24.9423ZM188.922 24.9423C188.922 21.0109 186.172 18.5339 182.627 18.5339C179.105 18.5339 176.332 21.0109 176.332 24.9423C176.332 28.8957 179.014 31.396 182.536 31.396C186.081 31.3967 188.922 28.897 188.922 24.9429V24.9423ZM178.446 24.9423C178.446 21.8063 180.422 20.3292 182.604 20.3292C184.74 20.3292 186.808 21.8063 186.808 24.9423C186.808 28.101 184.695 29.5781 182.536 29.5781C180.377 29.5781 178.446 28.1016 178.446 24.9429V24.9423ZM200.761 31.1921H202.806V23.8521C202.806 20.2844 200.602 18.5118 197.717 18.5118C196.036 18.5118 194.535 19.2163 193.716 20.5116V18.7391H191.649V31.1921H193.716V24.3066C193.716 21.6251 195.171 20.3065 197.284 20.3065C199.375 20.3065 200.761 21.6018 200.761 24.1469V31.1921ZM215.146 27.8062C215.055 23.3522 207.828 24.9662 207.828 22.0114C207.828 21.0115 208.737 20.2837 210.26 20.2837C211.919 20.2837 212.873 21.1927 212.964 22.4426H215.032C214.896 20.011 213.078 18.5339 210.328 18.5339C207.556 18.5339 205.76 20.1019 205.76 22.0108C205.76 26.6466 213.123 25.0332 213.123 27.8056C213.123 28.8282 212.214 29.6462 210.577 29.6462C208.828 29.6462 207.76 28.7373 207.646 27.5329H205.511C205.647 29.8053 207.692 31.396 210.6 31.396C213.35 31.3967 215.146 29.8514 215.146 27.8062Z"/>
</mask>
<path d="M81.5027 31.1921H83.8439L78.9802 23.284L83.866 15.3531H81.5481L77.9122 21.5576L74.0945 15.3531H71.7766L76.6396 23.284L71.7993 31.1921H74.0945L77.7077 25.0111L81.5027 31.1921ZM88.6836 21.0343V18.7391H86.6157V37.1005H88.6836V28.897C89.4562 30.1695 91.0697 31.3967 93.3421 31.3967C96.6827 31.3967 99.2505 28.7833 99.2505 24.9202C99.2505 21.0343 96.6823 18.5346 93.3421 18.5346C91.0697 18.5346 89.4335 19.7162 88.6836 21.0343ZM97.1371 24.9195C97.1371 27.851 95.2056 29.5781 92.9104 29.5781C90.6607 29.5781 88.6836 27.8737 88.6836 24.9423C88.6836 22.0563 90.6603 20.3292 92.9104 20.3292C95.2062 20.3298 97.1371 21.9887 97.1371 24.9195ZM104.045 24.4196C104.045 21.5336 105.545 20.6473 107.522 20.6473H108.067V18.5118C106.09 18.5118 104.749 19.3754 104.045 20.7616V18.7391H101.977V31.1921H104.045V24.4196ZM122.27 24.9429C122.27 21.0115 119.521 18.5346 115.976 18.5346C112.453 18.5346 109.681 21.0115 109.681 24.9429C109.681 28.8963 112.363 31.3967 115.885 31.3967C119.43 31.3967 122.27 28.897 122.27 24.9429ZM111.794 24.9429C111.794 21.8069 113.771 20.3298 115.953 20.3298C118.089 20.3298 120.157 21.8069 120.157 24.9429C120.157 28.1016 118.044 29.5787 115.885 29.5787C113.726 29.5787 111.794 28.1016 111.794 24.9429ZM141.7 31.1921H143.882L138.178 15.444H135.792L130.065 31.1921H132.247L133.519 27.6698H140.427L141.7 31.1921ZM139.837 25.9882H134.11L136.974 17.9892L139.837 25.9882ZM145.609 24.9195C145.609 28.7827 148.177 31.396 151.517 31.396C153.789 31.396 155.403 30.2371 156.153 28.8509V31.1921H158.243V14.376H156.153V20.9661C155.289 19.5341 153.494 18.5346 151.54 18.5346C148.176 18.5346 145.609 21.0343 145.609 24.9195ZM156.153 24.9423C156.153 27.8737 154.198 29.5781 151.926 29.5781C149.654 29.5781 147.722 27.8516 147.722 24.9195C147.722 21.9875 149.653 20.3292 151.926 20.3292C154.198 20.3292 156.153 22.0569 156.153 24.9429V24.9423ZM160.97 24.9195C160.97 28.7827 163.539 31.396 166.879 31.396C169.151 31.396 170.765 30.2371 171.515 28.8509V31.1921H173.606V14.376H171.515V20.9661C170.651 19.5341 168.856 18.5346 166.902 18.5346C163.538 18.5346 160.97 21.0343 160.97 24.9195ZM171.515 24.9423C171.515 27.8737 169.56 29.5781 167.288 29.5781C165.015 29.5781 163.084 27.8516 163.084 24.9195C163.084 21.9875 165.016 20.3292 167.288 20.3292C169.561 20.3292 171.515 22.0569 171.515 24.9429V24.9423ZM188.922 24.9423C188.922 21.0109 186.172 18.5339 182.627 18.5339C179.105 18.5339 176.332 21.0109 176.332 24.9423C176.332 28.8957 179.014 31.396 182.536 31.396C186.081 31.3967 188.922 28.897 188.922 24.9429V24.9423ZM178.446 24.9423C178.446 21.8063 180.422 20.3292 182.604 20.3292C184.74 20.3292 186.808 21.8063 186.808 24.9423C186.808 28.101 184.695 29.5781 182.536 29.5781C180.377 29.5781 178.446 28.1016 178.446 24.9429V24.9423ZM200.761 31.1921H202.806V23.8521C202.806 20.2844 200.602 18.5118 197.717 18.5118C196.036 18.5118 194.535 19.2163 193.716 20.5116V18.7391H191.649V31.1921H193.716V24.3066C193.716 21.6251 195.171 20.3065 197.284 20.3065C199.375 20.3065 200.761 21.6018 200.761 24.1469V31.1921ZM215.146 27.8062C215.055 23.3522 207.828 24.9662 207.828 22.0114C207.828 21.0115 208.737 20.2837 210.26 20.2837C211.919 20.2837 212.873 21.1927 212.964 22.4426H215.032C214.896 20.011 213.078 18.5339 210.328 18.5339C207.556 18.5339 205.76 20.1019 205.76 22.0108C205.76 26.6466 213.123 25.0332 213.123 27.8056C213.123 28.8282 212.214 29.6462 210.577 29.6462C208.828 29.6462 207.76 28.7373 207.646 27.5329H205.511C205.647 29.8053 207.692 31.396 210.6 31.396C213.35 31.3967 215.146 29.8514 215.146 27.8062Z" fill="white"/>
<path d="M81.5027 31.1921H83.8439L78.9802 23.284L83.866 15.3531H81.5481L77.9122 21.5576L74.0945 15.3531H71.7766L76.6396 23.284L71.7993 31.1921H74.0945L77.7077 25.0111L81.5027 31.1921ZM88.6836 21.0343V18.7391H86.6157V37.1005H88.6836V28.897C89.4562 30.1695 91.0697 31.3967 93.3421 31.3967C96.6827 31.3967 99.2505 28.7833 99.2505 24.9202C99.2505 21.0343 96.6823 18.5346 93.3421 18.5346C91.0697 18.5346 89.4335 19.7162 88.6836 21.0343ZM97.1371 24.9195C97.1371 27.851 95.2056 29.5781 92.9104 29.5781C90.6607 29.5781 88.6836 27.8737 88.6836 24.9423C88.6836 22.0563 90.6603 20.3292 92.9104 20.3292C95.2062 20.3298 97.1371 21.9887 97.1371 24.9195ZM104.045 24.4196C104.045 21.5336 105.545 20.6473 107.522 20.6473H108.067V18.5118C106.09 18.5118 104.749 19.3754 104.045 20.7616V18.7391H101.977V31.1921H104.045V24.4196ZM122.27 24.9429C122.27 21.0115 119.521 18.5346 115.976 18.5346C112.453 18.5346 109.681 21.0115 109.681 24.9429C109.681 28.8963 112.363 31.3967 115.885 31.3967C119.43 31.3967 122.27 28.897 122.27 24.9429ZM111.794 24.9429C111.794 21.8069 113.771 20.3298 115.953 20.3298C118.089 20.3298 120.157 21.8069 120.157 24.9429C120.157 28.1016 118.044 29.5787 115.885 29.5787C113.726 29.5787 111.794 28.1016 111.794 24.9429ZM141.7 31.1921H143.882L138.178 15.444H135.792L130.065 31.1921H132.247L133.519 27.6698H140.427L141.7 31.1921ZM139.837 25.9882H134.11L136.974 17.9892L139.837 25.9882ZM145.609 24.9195C145.609 28.7827 148.177 31.396 151.517 31.396C153.789 31.396 155.403 30.2371 156.153 28.8509V31.1921H158.243V14.376H156.153V20.9661C155.289 19.5341 153.494 18.5346 151.54 18.5346C148.176 18.5346 145.609 21.0343 145.609 24.9195ZM156.153 24.9423C156.153 27.8737 154.198 29.5781 151.926 29.5781C149.654 29.5781 147.722 27.8516 147.722 24.9195C147.722 21.9875 149.653 20.3292 151.926 20.3292C154.198 20.3292 156.153 22.0569 156.153 24.9429V24.9423ZM160.97 24.9195C160.97 28.7827 163.539 31.396 166.879 31.396C169.151 31.396 170.765 30.2371 171.515 28.8509V31.1921H173.606V14.376H171.515V20.9661C170.651 19.5341 168.856 18.5346 166.902 18.5346C163.538 18.5346 160.97 21.0343 160.97 24.9195ZM171.515 24.9423C171.515 27.8737 169.56 29.5781 167.288 29.5781C165.015 29.5781 163.084 27.8516 163.084 24.9195C163.084 21.9875 165.016 20.3292 167.288 20.3292C169.561 20.3292 171.515 22.0569 171.515 24.9429V24.9423ZM188.922 24.9423C188.922 21.0109 186.172 18.5339 182.627 18.5339C179.105 18.5339 176.332 21.0109 176.332 24.9423C176.332 28.8957 179.014 31.396 182.536 31.396C186.081 31.3967 188.922 28.897 188.922 24.9429V24.9423ZM178.446 24.9423C178.446 21.8063 180.422 20.3292 182.604 20.3292C184.74 20.3292 186.808 21.8063 186.808 24.9423C186.808 28.101 184.695 29.5781 182.536 29.5781C180.377 29.5781 178.446 28.1016 178.446 24.9429V24.9423ZM200.761 31.1921H202.806V23.8521C202.806 20.2844 200.602 18.5118 197.717 18.5118C196.036 18.5118 194.535 19.2163 193.716 20.5116V18.7391H191.649V31.1921H193.716V24.3066C193.716 21.6251 195.171 20.3065 197.284 20.3065C199.375 20.3065 200.761 21.6018 200.761 24.1469V31.1921ZM215.146 27.8062C215.055 23.3522 207.828 24.9662 207.828 22.0114C207.828 21.0115 208.737 20.2837 210.26 20.2837C211.919 20.2837 212.873 21.1927 212.964 22.4426H215.032C214.896 20.011 213.078 18.5339 210.328 18.5339C207.556 18.5339 205.76 20.1019 205.76 22.0108C205.76 26.6466 213.123 25.0332 213.123 27.8056C213.123 28.8282 212.214 29.6462 210.577 29.6462C208.828 29.6462 207.76 28.7373 207.646 27.5329H205.511C205.647 29.8053 207.692 31.396 210.6 31.396C213.35 31.3967 215.146 29.8514 215.146 27.8062Z" stroke="white" stroke-width="0.5" mask="url(#path-11-outside-1_66_304)"/>
<mask id="path-12-outside-2_66_304" maskUnits="userSpaceOnUse" x="140.137" y="39.8989" width="76" height="10" fill="black">
<rect fill="white" x="140.137" y="39.8989" width="76" height="10"/>
<path d="M141.933 49.4608H142.953V44.1601H144.241V43.3196H142.953V42.8825C142.953 42.0868 143.255 41.7506 144.174 41.7506V40.8989C142.605 40.8989 141.933 41.5153 141.933 42.8825V43.3196H141.137V44.1601H141.933V49.4608ZM151.256 46.379C151.256 44.4402 149.9 43.2193 148.152 43.2193C146.415 43.2193 145.048 44.4408 145.048 46.379C145.048 48.3289 146.371 49.5616 148.108 49.5616C149.856 49.5616 151.257 48.3289 151.257 46.379H151.256ZM146.09 46.379C146.09 44.8325 147.065 44.104 148.141 44.104C149.194 44.104 150.214 44.8325 150.214 46.379C150.214 47.9367 149.171 48.6651 148.107 48.6651C147.043 48.6651 146.091 47.9367 146.091 46.379H146.09ZM153.621 46.1212C153.621 44.698 154.36 44.2609 155.335 44.2609H155.604V43.2075C154.629 43.2075 153.968 43.6333 153.621 44.3169V43.3196H152.602V49.4608H153.621L153.621 46.1212ZM163.976 41.6386H159.773V49.4608H163.976V48.6203H160.794V45.9307H163.64V45.0902H160.794V42.4791H163.976L163.976 41.6386ZM165.523 49.4608H166.543V41.1679H165.523V49.4608ZM170.891 44.0816C171.944 44.0816 172.841 44.7428 172.83 45.9419H168.952C169.064 44.7428 169.893 44.0816 170.891 44.0816ZM173.76 47.5669H172.661C172.437 48.2281 171.855 48.6981 170.935 48.6981C169.892 48.6981 169.019 48.0145 168.94 46.7706H173.849C173.871 46.5659 173.883 46.3601 173.882 46.1542C173.882 44.4732 172.717 43.2181 170.935 43.2181C169.142 43.2181 167.898 44.4396 167.898 46.3777C167.898 48.3277 169.187 49.5604 170.935 49.5604C172.46 49.5616 173.446 48.6875 173.76 47.5669ZM184.092 49.4608H185.101V45.841C185.101 44.0822 184.014 43.2075 182.613 43.2075C181.672 43.2075 180.797 43.69 180.439 44.5747C180.035 43.6564 179.195 43.2075 178.186 43.2075C177.379 43.2075 176.651 43.5549 176.248 44.2049V43.3196H175.228V49.4608H176.248V46.0764C176.248 44.7534 176.954 44.0928 177.985 44.0928C178.993 44.0928 179.666 44.731 179.666 45.9867V49.4608H180.674V46.0764C180.674 44.7534 181.38 44.0928 182.411 44.0928C183.42 44.0928 184.092 44.731 184.092 45.9867V49.4608ZM189.382 44.0816C190.435 44.0816 191.332 44.7428 191.32 45.9419H187.443C187.555 44.7428 188.384 44.0816 189.382 44.0816ZM192.251 47.5669H191.152C190.928 48.2281 190.346 48.6981 189.426 48.6981C188.383 48.6981 187.51 48.0145 187.431 46.7706H192.34C192.362 46.5659 192.374 46.3601 192.373 46.1542C192.373 44.4732 191.208 43.2181 189.426 43.2181C187.633 43.2181 186.389 44.4396 186.389 46.3777C186.389 48.3277 187.678 49.5604 189.426 49.5604C190.951 49.5616 191.937 48.6875 192.251 47.5669ZM198.213 49.4608H199.221V45.841C199.221 44.0822 198.134 43.2075 196.711 43.2075C195.882 43.2075 195.142 43.5549 194.739 44.1937V43.3196H193.719V49.4608H194.739V46.0652C194.739 44.7422 195.456 44.0928 196.497 44.0928C197.528 44.0928 198.212 44.731 198.212 45.9867L198.213 49.4608ZM201.115 47.7798C201.115 49.0125 201.731 49.4608 202.818 49.4608H203.737V48.5979H202.986C202.358 48.5979 202.134 48.385 202.134 47.7798V44.1601H203.737V43.3196H202.134V41.773H201.115V43.3196H200.319V44.1601H201.115V47.7798ZM210.798 46.379C210.798 44.4402 209.442 43.2193 207.693 43.2193C205.956 43.2193 204.589 44.4408 204.589 46.379C204.589 48.3289 205.912 49.5616 207.649 49.5616C209.397 49.5616 210.798 48.3289 210.798 46.379ZM205.631 46.379C205.631 44.8325 206.606 44.104 207.682 44.104C208.736 44.104 209.755 44.8325 209.755 46.379C209.755 47.9367 208.713 48.6651 207.649 48.6651C206.585 48.6651 205.631 47.9367 205.631 46.379ZM213.162 46.1212C213.162 44.698 213.902 44.2609 214.877 44.2609H215.146V43.2075C214.171 43.2075 213.51 43.6333 213.162 44.3169V43.3196H212.142V49.4608H213.162V46.1212Z"/>
</mask>
<path d="M141.933 49.4608H142.953V44.1601H144.241V43.3196H142.953V42.8825C142.953 42.0868 143.255 41.7506 144.174 41.7506V40.8989C142.605 40.8989 141.933 41.5153 141.933 42.8825V43.3196H141.137V44.1601H141.933V49.4608ZM151.256 46.379C151.256 44.4402 149.9 43.2193 148.152 43.2193C146.415 43.2193 145.048 44.4408 145.048 46.379C145.048 48.3289 146.371 49.5616 148.108 49.5616C149.856 49.5616 151.257 48.3289 151.257 46.379H151.256ZM146.09 46.379C146.09 44.8325 147.065 44.104 148.141 44.104C149.194 44.104 150.214 44.8325 150.214 46.379C150.214 47.9367 149.171 48.6651 148.107 48.6651C147.043 48.6651 146.091 47.9367 146.091 46.379H146.09ZM153.621 46.1212C153.621 44.698 154.36 44.2609 155.335 44.2609H155.604V43.2075C154.629 43.2075 153.968 43.6333 153.621 44.3169V43.3196H152.602V49.4608H153.621L153.621 46.1212ZM163.976 41.6386H159.773V49.4608H163.976V48.6203H160.794V45.9307H163.64V45.0902H160.794V42.4791H163.976L163.976 41.6386ZM165.523 49.4608H166.543V41.1679H165.523V49.4608ZM170.891 44.0816C171.944 44.0816 172.841 44.7428 172.83 45.9419H168.952C169.064 44.7428 169.893 44.0816 170.891 44.0816ZM173.76 47.5669H172.661C172.437 48.2281 171.855 48.6981 170.935 48.6981C169.892 48.6981 169.019 48.0145 168.94 46.7706H173.849C173.871 46.5659 173.883 46.3601 173.882 46.1542C173.882 44.4732 172.717 43.2181 170.935 43.2181C169.142 43.2181 167.898 44.4396 167.898 46.3777C167.898 48.3277 169.187 49.5604 170.935 49.5604C172.46 49.5616 173.446 48.6875 173.76 47.5669ZM184.092 49.4608H185.101V45.841C185.101 44.0822 184.014 43.2075 182.613 43.2075C181.672 43.2075 180.797 43.69 180.439 44.5747C180.035 43.6564 179.195 43.2075 178.186 43.2075C177.379 43.2075 176.651 43.5549 176.248 44.2049V43.3196H175.228V49.4608H176.248V46.0764C176.248 44.7534 176.954 44.0928 177.985 44.0928C178.993 44.0928 179.666 44.731 179.666 45.9867V49.4608H180.674V46.0764C180.674 44.7534 181.38 44.0928 182.411 44.0928C183.42 44.0928 184.092 44.731 184.092 45.9867V49.4608ZM189.382 44.0816C190.435 44.0816 191.332 44.7428 191.32 45.9419H187.443C187.555 44.7428 188.384 44.0816 189.382 44.0816ZM192.251 47.5669H191.152C190.928 48.2281 190.346 48.6981 189.426 48.6981C188.383 48.6981 187.51 48.0145 187.431 46.7706H192.34C192.362 46.5659 192.374 46.3601 192.373 46.1542C192.373 44.4732 191.208 43.2181 189.426 43.2181C187.633 43.2181 186.389 44.4396 186.389 46.3777C186.389 48.3277 187.678 49.5604 189.426 49.5604C190.951 49.5616 191.937 48.6875 192.251 47.5669ZM198.213 49.4608H199.221V45.841C199.221 44.0822 198.134 43.2075 196.711 43.2075C195.882 43.2075 195.142 43.5549 194.739 44.1937V43.3196H193.719V49.4608H194.739V46.0652C194.739 44.7422 195.456 44.0928 196.497 44.0928C197.528 44.0928 198.212 44.731 198.212 45.9867L198.213 49.4608ZM201.115 47.7798C201.115 49.0125 201.731 49.4608 202.818 49.4608H203.737V48.5979H202.986C202.358 48.5979 202.134 48.385 202.134 47.7798V44.1601H203.737V43.3196H202.134V41.773H201.115V43.3196H200.319V44.1601H201.115V47.7798ZM210.798 46.379C210.798 44.4402 209.442 43.2193 207.693 43.2193C205.956 43.2193 204.589 44.4408 204.589 46.379C204.589 48.3289 205.912 49.5616 207.649 49.5616C209.397 49.5616 210.798 48.3289 210.798 46.379ZM205.631 46.379C205.631 44.8325 206.606 44.104 207.682 44.104C208.736 44.104 209.755 44.8325 209.755 46.379C209.755 47.9367 208.713 48.6651 207.649 48.6651C206.585 48.6651 205.631 47.9367 205.631 46.379ZM213.162 46.1212C213.162 44.698 213.902 44.2609 214.877 44.2609H215.146V43.2075C214.171 43.2075 213.51 43.6333 213.162 44.3169V43.3196H212.142V49.4608H213.162V46.1212Z" fill="white"/>
<path d="M141.933 49.4608H142.953V44.1601H144.241V43.3196H142.953V42.8825C142.953 42.0868 143.255 41.7506 144.174 41.7506V40.8989C142.605 40.8989 141.933 41.5153 141.933 42.8825V43.3196H141.137V44.1601H141.933V49.4608ZM151.256 46.379C151.256 44.4402 149.9 43.2193 148.152 43.2193C146.415 43.2193 145.048 44.4408 145.048 46.379C145.048 48.3289 146.371 49.5616 148.108 49.5616C149.856 49.5616 151.257 48.3289 151.257 46.379H151.256ZM146.09 46.379C146.09 44.8325 147.065 44.104 148.141 44.104C149.194 44.104 150.214 44.8325 150.214 46.379C150.214 47.9367 149.171 48.6651 148.107 48.6651C147.043 48.6651 146.091 47.9367 146.091 46.379H146.09ZM153.621 46.1212C153.621 44.698 154.36 44.2609 155.335 44.2609H155.604V43.2075C154.629 43.2075 153.968 43.6333 153.621 44.3169V43.3196H152.602V49.4608H153.621L153.621 46.1212ZM163.976 41.6386H159.773V49.4608H163.976V48.6203H160.794V45.9307H163.64V45.0902H160.794V42.4791H163.976L163.976 41.6386ZM165.523 49.4608H166.543V41.1679H165.523V49.4608ZM170.891 44.0816C171.944 44.0816 172.841 44.7428 172.83 45.9419H168.952C169.064 44.7428 169.893 44.0816 170.891 44.0816ZM173.76 47.5669H172.661C172.437 48.2281 171.855 48.6981 170.935 48.6981C169.892 48.6981 169.019 48.0145 168.94 46.7706H173.849C173.871 46.5659 173.883 46.3601 173.882 46.1542C173.882 44.4732 172.717 43.2181 170.935 43.2181C169.142 43.2181 167.898 44.4396 167.898 46.3777C167.898 48.3277 169.187 49.5604 170.935 49.5604C172.46 49.5616 173.446 48.6875 173.76 47.5669ZM184.092 49.4608H185.101V45.841C185.101 44.0822 184.014 43.2075 182.613 43.2075C181.672 43.2075 180.797 43.69 180.439 44.5747C180.035 43.6564 179.195 43.2075 178.186 43.2075C177.379 43.2075 176.651 43.5549 176.248 44.2049V43.3196H175.228V49.4608H176.248V46.0764C176.248 44.7534 176.954 44.0928 177.985 44.0928C178.993 44.0928 179.666 44.731 179.666 45.9867V49.4608H180.674V46.0764C180.674 44.7534 181.38 44.0928 182.411 44.0928C183.42 44.0928 184.092 44.731 184.092 45.9867V49.4608ZM189.382 44.0816C190.435 44.0816 191.332 44.7428 191.32 45.9419H187.443C187.555 44.7428 188.384 44.0816 189.382 44.0816ZM192.251 47.5669H191.152C190.928 48.2281 190.346 48.6981 189.426 48.6981C188.383 48.6981 187.51 48.0145 187.431 46.7706H192.34C192.362 46.5659 192.374 46.3601 192.373 46.1542C192.373 44.4732 191.208 43.2181 189.426 43.2181C187.633 43.2181 186.389 44.4396 186.389 46.3777C186.389 48.3277 187.678 49.5604 189.426 49.5604C190.951 49.5616 191.937 48.6875 192.251 47.5669ZM198.213 49.4608H199.221V45.841C199.221 44.0822 198.134 43.2075 196.711 43.2075C195.882 43.2075 195.142 43.5549 194.739 44.1937V43.3196H193.719V49.4608H194.739V46.0652C194.739 44.7422 195.456 44.0928 196.497 44.0928C197.528 44.0928 198.212 44.731 198.212 45.9867L198.213 49.4608ZM201.115 47.7798C201.115 49.0125 201.731 49.4608 202.818 49.4608H203.737V48.5979H202.986C202.358 48.5979 202.134 48.385 202.134 47.7798V44.1601H203.737V43.3196H202.134V41.773H201.115V43.3196H200.319V44.1601H201.115V47.7798ZM210.798 46.379C210.798 44.4402 209.442 43.2193 207.693 43.2193C205.956 43.2193 204.589 44.4408 204.589 46.379C204.589 48.3289 205.912 49.5616 207.649 49.5616C209.397 49.5616 210.798 48.3289 210.798 46.379ZM205.631 46.379C205.631 44.8325 206.606 44.104 207.682 44.104C208.736 44.104 209.755 44.8325 209.755 46.379C209.755 47.9367 208.713 48.6651 207.649 48.6651C206.585 48.6651 205.631 47.9367 205.631 46.379ZM213.162 46.1212C213.162 44.698 213.902 44.2609 214.877 44.2609H215.146V43.2075C214.171 43.2075 213.51 43.6333 213.162 44.3169V43.3196H212.142V49.4608H213.162V46.1212Z" stroke="white" stroke-width="0.3" mask="url(#path-12-outside-2_66_304)"/>
<defs>
<linearGradient id="paint0_linear_66_304" x1="7.59477" y1="7.5948" x2="60.7572" y2="60.7573" gradientUnits="userSpaceOnUse">
<stop stop-color="#FF8C80"/>
<stop offset="1" stop-color="#FF6674"/>
</linearGradient>
<linearGradient id="paint1_linear_66_304" x1="57.8675" y1="63.9431" x2="52.9765" y2="42.192" gradientUnits="userSpaceOnUse">
<stop stop-color="#FF7F7C"/>
<stop offset="1" stop-color="#FF9482"/>
</linearGradient>
<linearGradient id="paint2_linear_66_304" x1="60.9056" y1="7.59465" x2="7.74317" y2="60.7571" gradientUnits="userSpaceOnUse">
<stop stop-color="#FF8C80"/>
<stop offset="1" stop-color="#FF6674"/>
</linearGradient>
<linearGradient id="paint3_linear_66_304" x1="4.55682" y1="57.8672" x2="26.3079" y2="52.9762" gradientUnits="userSpaceOnUse">
<stop stop-color="#FF7F7C"/>
<stop offset="1" stop-color="#FF9482"/>
</linearGradient>
</defs>
</svg>
